<svg width="150" height="150" viewBox="0 0 150 150" fill="none" xmlns="http://www.w3.org/2000/svg">
<path d="M66.5829 0.311905C62.237 1.32806 59.8319 2.71375 56.9838 5.83151C54.2834 8.76453 52.9543 11.328 51.8995 15.5312C51.4142 17.4481 51.3087 18.2795 51.3298 20.4966C51.3298 21.9515 51.4564 23.6143 51.6041 24.1917C51.7518 24.7922 51.8573 26.4088 51.8573 28.0023C51.8362 30.4042 51.7518 31.0739 51.2033 32.9677C50.3805 35.8776 50.0851 36.5935 48.9248 38.5565C47.7434 40.612 46.3721 42.0669 43.0809 44.7921C41.6674 45.9699 39.7898 47.5403 38.9038 48.3025C38.0177 49.0877 36.8573 50.0807 36.3088 50.5195C34.9375 51.6512 31.4143 55.7158 30.6127 57.1015C30.254 57.725 29.4523 59.2724 28.8405 60.4964C28.2287 61.7435 27.6591 62.7597 27.5958 62.7597C27.2582 62.7597 23.2076 55.3463 21.5832 51.7666C18.503 45.0461 17.2161 40.2886 17.1739 35.508C17.1317 31.4434 17.9756 29.0878 20.1064 27.3095C21.8574 25.8545 23.0178 25.5081 26.8574 25.3926C31.0979 25.2772 33.6717 25.5774 37.8278 26.7321C40.4016 27.448 44.5999 29.0185 47.4269 30.3118C47.9121 30.5196 48.1864 29.873 48.2497 28.2333C48.313 26.7552 48.3763 26.8245 46.7307 26.0624C41.4987 23.5912 33.3764 21.3511 28.292 21.0277C25.0009 20.7968 20.0431 21.9284 17.7013 23.4296C15.8448 24.6074 14.1992 27.3095 13.4398 30.4734C12.9545 32.3903 12.8279 36.2933 13.1866 37.8175C13.2921 38.2563 13.6296 39.7113 13.925 41.0508C15.5495 48.1408 18.4819 54.8382 24.0093 64.0761L26.119 67.5864L25.9502 68.8104C25.8658 69.4802 25.7815 70.1961 25.7604 70.3809C25.7393 70.5656 25.6549 71.0968 25.5705 71.5356C25.5072 71.9744 25.4017 72.7134 25.3595 73.1522C25.2962 73.591 25.1696 74.6765 25.0431 75.5772C24.6633 78.5102 25.0431 82.9443 26.1823 88.8796C26.6675 91.42 28.4608 97.2168 31.4565 106.062C31.7097 106.824 31.984 107.748 32.0683 108.117L32.216 108.764L30.9502 108.649C30.254 108.579 29.4734 108.371 29.1992 108.187C28.9249 108.002 28.3553 107.725 27.9333 107.563C27.0895 107.286 26.984 107.009 27.3637 106.085C27.5747 105.6 27.5325 105.323 27.1106 104.399C26.6464 103.383 26.541 103.291 25.8658 103.291C25.1907 103.291 25.0642 103.406 24.4313 104.561C24.0515 105.254 23.6507 105.877 23.5241 105.923C22.9545 106.131 16.3511 102.829 13.4187 100.866C9.26257 98.0944 6.09803 94.6071 4.81111 91.4662C4.36808 90.3115 4.32589 86.1083 4.74782 84.9305C5.63389 82.5517 8.56637 78.8335 11.3301 76.5933C13.1444 75.1384 16.752 72.852 19.6001 71.4201C20.8448 70.7735 21.8574 70.1499 21.8574 70.0345C21.8363 69.5033 20.8659 67.9329 20.3174 67.6095C19.7688 67.2631 19.6423 67.3093 16.2667 69.18C11.6043 71.7665 7.02629 75.1153 4.95879 77.4478C3.03897 79.6418 2.30058 80.7965 1.18244 83.36C-0.294342 86.7549 -0.357633 88.6025 0.823795 91.9743C1.96303 95.2307 3.5664 97.6094 6.24571 100.057C9.53683 103.06 14.2836 106.016 19.3891 108.256C21.2667 109.087 21.984 109.503 22.0262 109.826C22.0684 110.057 21.8363 110.981 21.5199 111.859C20.1486 115.831 19.6634 117.355 18.8828 120.265C17.2794 126.2 16.3933 132.205 16.4988 136.177C16.6043 139.965 18.6507 145.207 20.6549 146.893C23.292 149.087 26.7941 150.219 30.1907 149.965C35.2962 149.549 41.6253 147.24 49.2623 142.99C50.9501 142.066 52.7222 141.05 53.1864 140.75C53.6505 140.473 54.5999 139.872 55.2961 139.457C59.7053 136.685 67.3002 131.05 72.0681 126.986C73.2706 125.97 74.3677 125.115 74.5154 125.115C74.6419 125.115 76.5407 126.616 78.7347 128.418C95.4435 142.321 108.882 149.618 117.722 149.618C122.279 149.618 125.739 147.424 127.595 143.36C128.84 140.635 129.135 139.133 129.114 135.392C129.072 129.457 127.49 122.251 124.473 114.399C123.84 112.759 123.334 111.351 123.334 111.235C123.334 111.143 124.262 110.727 125.401 110.311C133.882 107.24 141.055 103.06 145.042 98.9027C148.988 94.7688 150.717 89.942 149.726 85.8081C148.27 79.6649 143.481 74.6072 134.41 69.5264C132.258 68.3486 129.346 66.8936 128.945 66.8243C128.819 66.8012 128.587 66.7088 128.46 66.6165C128.102 66.3624 127.891 66.5472 127.384 67.4479C127.047 68.0945 127.026 68.3486 127.215 68.9952C127.426 69.7111 127.764 69.9421 131.667 72.0899C136.561 74.7919 139.283 76.7781 141.73 79.457C144.578 82.5748 145.76 85.2538 145.76 88.5794C145.76 91.3046 145.021 92.8288 142.215 95.9235C138.27 100.265 131.878 104.214 124.789 106.662C122.511 107.448 121.983 107.54 121.73 107.309C121.54 107.147 120.929 105.993 120.359 104.769C118.608 100.912 114.494 93.614 113.144 91.9512C112.089 90.6117 110.76 91.1198 110.528 92.9443C110.422 93.845 110.507 94.099 111.688 96.0621C114.262 100.404 117.764 107.286 117.891 108.21C117.933 108.672 117.806 108.833 116.899 109.203C115.929 109.619 113.84 110.15 111.941 110.473C111.54 110.542 110.676 110.727 110.043 110.912C109.41 111.074 108.123 111.281 107.216 111.374C106.287 111.443 105.422 111.582 105.317 111.674C105.19 111.766 104.895 111.836 104.663 111.859C101.646 112.09 100.085 112.251 99.3886 112.39C98.4182 112.598 98.5026 112.598 95.3802 112.713C92.7431 112.806 92.4056 112.944 90.6334 114.722C89.663 115.692 89.5153 115.923 89.7052 116.27C90.0216 116.824 91.0976 116.893 95.1693 116.57C102.3 116.016 108.439 115.046 115.127 113.429C120.19 112.205 119.747 112.113 120.697 114.492C121.013 115.323 121.456 116.431 121.688 116.986C122.258 118.418 123.882 123.776 124.367 125.946C124.599 126.963 124.958 129.249 125.127 131.027C125.317 132.782 125.507 134.353 125.549 134.515C125.675 134.93 125.127 138.256 124.705 139.526C123.735 142.598 121.899 144.26 118.566 145.115C113.038 146.524 101.667 141.512 89.1144 132.159C84.2832 128.556 77.7643 122.921 77.7643 122.367C77.7643 122.159 78.5449 121.258 79.5153 120.381C85.8233 114.538 94.7473 105.231 99.9161 99.1336C109.979 87.2861 119.325 74.1222 125.211 63.4987C131.54 52.0669 135.57 39.3648 135.57 30.9815C135.549 24.5381 132.553 20.1732 127.342 18.9723C123.376 18.0716 120.549 18.1409 116.477 19.2264C115.317 19.5497 114.009 19.873 113.545 19.9192C113.102 19.9885 111.962 20.3349 111.013 20.7044C110.085 21.0508 108.692 21.582 107.933 21.8822C105.296 22.8753 102.933 24.03 98.9245 26.2933C93.376 29.4342 90.9921 30.9584 90.6756 31.6051C90.4857 31.9746 90.4436 32.6212 90.549 33.6374C90.76 36.1778 90.6123 36.1547 93.587 34.1686C95.0427 33.1986 96.4984 32.1593 96.8148 31.9053C97.5954 31.2125 103.545 27.933 106.245 26.6628C111.688 24.1455 115.781 23.037 120.38 22.8753C125.064 22.7137 127.068 23.291 129.178 25.4157C130.275 26.5243 130.76 27.4942 131.224 29.4342C132.026 32.806 131.308 38.9953 129.473 44.4457C127.827 49.3417 127.426 50.4272 125.971 53.7066C124.241 57.6096 121.583 62.6904 120.338 64.4918C119.895 65.1153 118.713 66.9398 117.722 68.5333C114.726 73.2215 108.46 82.3439 106.456 84.9305C106.013 85.5078 104.515 87.4247 103.123 89.203C101.752 90.9812 99.4097 93.845 97.933 95.554C96.4773 97.263 95.2747 98.7872 95.2747 98.9027C95.2747 99.3646 87.6377 107.378 81.0343 113.822C66.9205 127.609 54.5366 136.732 42.5324 142.205C36.5409 144.93 32.3637 145.808 28.3131 145.23C26.0135 144.884 24.4945 144.168 23.1021 142.759C21.7098 141.304 21.0347 140.011 20.5494 137.84C19.3891 132.459 20.7815 124.053 24.6633 113.383C25.5072 111.004 25.5283 110.981 26.1612 111.097C26.7308 111.166 28.9038 111.859 33.2287 113.314L34.3679 113.683L34.8531 115.762C35.1274 116.893 35.4439 118.718 35.5704 119.803C35.908 122.875 35.908 122.875 37.005 123.522C38.1232 124.214 39.5788 124.561 42.6801 124.884C45.4227 125.161 46.14 124.953 46.0345 123.891C45.9923 123.475 45.8868 122.482 45.8024 121.651C45.6337 119.688 45.1484 116.154 44.621 113.013C44.1991 110.519 44.1991 110.519 42.7434 108.464C39.9164 104.468 37.0683 98.3253 35.8658 93.6602C35.5493 92.4131 35.0219 91.0274 34.6211 90.3577C32.7224 87.2168 31.8574 84.8612 31.2667 81.0506C30.8447 78.4409 30.8236 76.6164 31.2034 76.6164C31.33 76.6395 32.216 77.9097 33.1443 79.457C34.0726 81.0044 35.6759 83.4293 36.7097 84.8843C38.3341 87.1937 38.6928 87.8404 39.4945 90.196C42.5535 99.0413 46.4986 105.508 54.8319 115.392C58.3973 119.595 59.5154 120.542 62.3213 121.651C65.0217 122.713 64.8319 122.806 70.1061 117.725C71.4985 116.385 73.5027 114.468 74.5787 113.452C76.6673 111.489 80.6968 106.639 81.9415 104.63C82.6377 103.475 82.6588 103.314 82.5533 102.02C82.4056 100.242 81.7727 99.0182 79.7052 96.6856C77.6799 94.3531 77.0259 93.9143 75.3803 93.7757C72.7854 93.5678 67.1103 96.2699 64.3255 99.0413C63.8614 99.5031 63.4184 100.034 63.3551 100.242C63.2074 100.681 62.7855 100.773 62.7855 100.404C62.7855 100.011 63.6293 98.3022 64.3888 97.1013C65.0428 96.1313 65.1061 95.8542 65.1061 94.4454C65.1061 90.4963 63.2285 86.1545 59.9796 82.5055L58.5239 80.8889L58.7771 79.2492C59.1568 76.8243 58.9458 71.0275 58.3762 68.6026C56.7518 61.5587 53.1442 56.4548 47.8067 53.6604C46.9417 53.1985 46.1189 52.829 45.9712 52.829C45.8235 52.829 45.697 52.7135 45.697 52.598C45.697 52.2054 48.5029 52.344 50.2117 52.829C52.5113 53.4756 54.199 54.5149 56.1188 56.5241C59.199 59.7343 60.9711 63.4294 62.0471 68.7643C62.5323 71.2123 62.5956 71.9051 62.6378 75.9467L62.68 79.5725L63.9036 81.3739C65.8445 84.1914 67.1103 87.3323 67.5534 90.3808C67.7644 91.8588 67.9542 92.0667 68.566 91.42C69.5998 90.3577 70.8234 87.2168 71.4774 83.8912C71.7939 82.2746 71.7728 75.531 71.4563 71.7665C71.1609 68.2562 71.3297 68.3255 72.7221 72.1823C73.8403 75.3 74.3255 77.4478 74.5998 80.4732C74.7263 81.8589 74.9162 83.1753 75.0217 83.4293C75.1272 83.6834 75.2327 84.0298 75.2749 84.1914C75.317 84.3762 75.9078 83.7988 76.6673 82.852C77.7643 81.4663 77.9753 81.0737 77.9753 80.3577C77.9753 78.0021 77.49 71.1892 77.1947 69.4571C76.1187 63.3139 73.6082 59.7112 67.8909 56.2008C65.95 54.9999 65.5281 55.023 65.0006 56.3625C64.8319 56.7782 64.4099 57.4017 64.0724 57.7481C63.7137 58.1177 63.3551 58.6719 63.2918 58.9722C63.2285 59.2724 63.0808 59.5264 62.9964 59.5264C62.8066 59.5264 62.3635 57.1939 62.3635 56.1777C62.3635 55.3925 63.2918 53.6142 64.3045 52.4364L64.9374 51.7205L63.7559 49.0877C63.123 47.6558 62.4268 45.8544 62.237 45.0923C61.6462 42.6674 61.5829 38.0485 62.1315 38.0485C62.2159 38.0485 62.4268 38.4873 62.5745 39.0184C63.545 42.4133 65.507 44.9999 69.7896 48.5103C74.1145 52.0669 75.528 52.7597 77.2158 52.1362C78.3339 51.7435 79.3888 50.3117 79.5786 48.9722C79.7685 47.5172 79.9584 47.0784 80.8655 46.2239L81.625 45.4849L81.182 44.8614C80.9288 44.5149 80.7179 44.1454 80.7179 44.03C80.7179 43.9376 81.1609 43.6835 81.6883 43.4526C82.9752 42.9214 83.2495 42.575 83.2495 41.5126C83.2495 41.0277 83.355 40.3348 83.4605 39.9884C83.6714 39.3879 83.7136 39.3648 84.9583 39.5265C86.1187 39.642 86.2664 39.6189 86.7516 39.0877C87.3634 38.418 87.3845 38.4873 86.2663 34.2379C85.3803 30.9122 85.1904 29.2263 85.5913 28.8568C85.76 28.7182 86.2664 28.2564 86.7305 27.8176L87.5744 27.0092L87.5111 24.4919C87.4478 20.4735 87.1102 17.5174 86.625 16.7091C85.9288 15.5081 85.6967 14.9539 85.8444 14.7922C85.9288 14.7229 86.2031 14.8615 86.4773 15.0924C87.1524 15.7622 89.663 17.4943 89.9583 17.4943C90.2748 17.4943 90.4857 16.6629 90.4646 15.5081C90.4436 12.9216 87.1102 8.55667 82.6588 5.27724C79.452 2.9216 77.1736 1.85924 73.2285 0.843079C69.4099 -0.126892 68.6504 -0.196182 66.5829 0.311905ZM64.7264 21.0739C65.5703 21.6975 66.2876 23.1063 66.4985 24.5843C66.6673 25.739 66.2876 25.97 65.9289 24.9307C65.507 23.7067 64.1779 22.5751 63.1652 22.5751C62.3846 22.5751 61.1821 23.8222 60.8024 25.0462C60.3593 26.4319 60.3804 28.7644 60.8235 30.4965C61.2032 32.0208 62.258 33.3834 63.2496 33.5912C64.0935 33.776 63.9669 34.03 62.9753 34.2148C60.1484 34.6997 58.6294 32.575 58.4184 27.7714C58.334 25.7852 58.3762 25.2772 58.7771 24.1224C59.6209 21.6513 60.9078 20.4966 62.7855 20.4966C63.6715 20.4966 64.1357 20.6351 64.7264 21.0739Z" fill="#F1F3F6"/>
<path d="M103.228 39.4567C102.996 39.5952 102.722 39.7338 102.595 39.7569C102.321 39.8262 101.35 40.265 100.549 40.6807C99.8736 41.0271 98.3968 43.1518 98.5445 43.5675C98.6078 43.7292 98.5445 44.0294 98.4179 44.1911C98.2281 44.4451 98.2914 44.5144 98.7555 44.5144C99.1563 44.5144 99.5994 44.8146 100.19 45.4382L101.034 46.362L100.865 48.2788C100.781 49.3181 100.696 50.519 100.675 50.9116C100.675 51.3273 100.591 51.6737 100.528 51.6737C100.274 51.6737 99.8736 54.6529 100 55.4381C100.19 56.5929 101.266 57.7014 103.692 59.2949C108.186 62.251 109.684 62.6205 111.983 61.3042C113.481 60.4497 115.739 58.6714 115.739 58.348C115.739 58.2326 115.886 58.1402 116.055 58.1402C116.477 58.1402 116.477 58.094 115.696 59.803C114.726 61.9046 112.848 63.8446 110.654 65.0224C109.684 65.5536 108.523 66.0385 108.101 66.1078C107.658 66.1771 107.3 66.3619 107.3 66.5235C107.321 66.6852 107.912 67.7244 108.629 68.8792C109.852 70.796 109.979 70.9346 110.717 71.0039C111.456 71.0501 111.582 70.9346 112.722 69.4796C115.907 65.3919 116.688 64.1448 118.355 60.6344C120.591 55.9231 121.266 52.9439 120.633 50.6345C120.253 49.2026 118.924 46.9393 117.637 45.5306C115.443 43.1287 111.393 40.519 108.882 39.8955C108.291 39.7338 107.532 39.526 107.173 39.4105C106.287 39.1334 103.692 39.1564 103.228 39.4567Z" fill="#F1F3F6"/>
<path d="M95.7597 46.3851C94.304 47.1703 93.1858 48.81 92.8483 50.6576C92.574 52.1125 92.5318 52.5513 92.5107 54.3989C92.5107 55.8077 92.6162 56.5467 92.8905 57.1703C93.2491 57.9786 93.3757 58.0478 95.3799 58.6483C97.8272 59.3642 98.3124 59.4104 98.1647 58.9947C98.1014 58.81 97.9327 57.8862 97.785 56.9162C97.5107 55.161 97.5318 55.0917 98.3335 51.5814C99.0508 48.3943 99.1141 47.9324 98.8609 47.2858C98.3757 46.0387 97.0888 45.6461 95.7597 46.3851Z" fill="#F1F3F6"/>
<path d="M82.0679 53.6136C81.667 54.1217 81.3506 54.6529 81.3506 54.8146C81.3506 54.9531 82.0468 55.8307 82.8907 56.7314C84.7261 58.6944 85.359 58.8561 86.4982 57.609C87.5109 56.5466 87.3421 55.7845 85.7176 54.0293C84.7472 52.9901 84.4518 52.8053 83.6923 52.7591C82.8696 52.7129 82.7219 52.7822 82.0679 53.6136Z" fill="#F1F3F6"/>
<path d="M92.0256 61.8358C91.2239 61.9974 90.7809 62.4132 89.494 64.1452C89.283 64.4455 88.9877 65.2076 88.8611 65.8542C88.5446 67.263 88.4391 67.5171 87.4265 68.7411C86.6037 69.7341 86.0341 69.9882 86.3083 69.2722C86.5826 68.5794 86.8358 67.2861 86.8358 66.5702C86.8358 64.7457 84.937 65.2769 83.0805 67.5863C81.2873 69.8265 81.0341 70.6348 81.0552 74.1914C81.0552 76.8011 81.1185 77.4015 81.5826 78.8103C81.9624 79.965 82.2577 80.4962 82.6164 80.7041C82.9117 80.8426 83.7767 81.2814 84.5573 81.674C85.3168 82.0666 86.456 82.898 87.0678 83.4985C88.0805 84.4916 90.0003 87.4015 90.0003 87.9327C90.0003 88.3484 89.6417 88.1867 89.3041 87.6093C88.3336 85.9927 84.0299 83.7295 81.8358 83.6833C80.9708 83.6602 80.8864 83.7295 77.9962 86.8934C76.3717 88.6717 75.0215 90.2421 75.0215 90.3807C75.0215 90.5193 75.5489 90.704 76.2029 90.7964C78.5236 91.0966 81.0552 93.0135 82.9328 95.9003C83.9033 97.4014 84.937 99.5492 85.359 100.935C85.5699 101.674 85.6754 101.789 86.0552 101.651C87.5531 101.166 92.0889 94.8149 92.11 93.2444C92.11 93.0366 91.9201 92.4823 91.6881 91.9742C91.1817 90.8888 91.1817 90.935 91.5826 90.935C92.0678 90.935 92.8906 91.9973 93.0383 92.7825C93.1016 93.1751 93.2914 93.5447 93.4602 93.6139C93.7978 93.7525 97.6374 91.3045 99.7049 89.6417C104.009 86.2006 106.393 82.8057 107.215 78.9951C108.08 74.9997 106.688 71.0736 103.123 67.3785C101.266 65.4385 100.232 64.6071 98.2281 63.4986C95.7176 62.0667 93.5868 61.5125 92.0256 61.8358Z" fill="#F1F3F6"/>
<path d="M127.194 85.415C124.958 86.639 123.777 89.5489 124.388 92.3665C124.768 94.0062 126.182 95.5766 127.848 96.154C129.03 96.5697 129.051 96.5697 130.549 96.0385C131.73 95.6228 132.258 95.2764 133.059 94.3988C134.916 92.3665 135.127 89.8491 133.629 87.378C132.405 85.3226 129.156 84.3295 127.194 85.415Z" fill="#F1F3F6"/>
<path d="M89.1562 116.431C89.1562 116.616 89.2406 116.823 89.3461 116.893C89.4516 116.985 89.4938 116.823 89.4305 116.569C89.3039 116.038 89.1562 115.969 89.1562 116.431Z" fill="#F1F3F6"/>
</svg>
