<svg width="56" height="60" viewBox="0 0 56 60" fill="none" xmlns="http://www.w3.org/2000/svg">
<path d="M56 25.3291C56 43.6979 43.0806 60 25.2483 60C7.41599 60 0 46.0676 0 27.6989C0 9.33012 11.3893 0 29.2216 0C47.0539 0 56 6.96038 56 25.3291Z" fill="#0C2965"/>
<path d="M20.5636 31.0576C20.5636 31.0576 21.1725 33.33 24.5341 35.2708C27.8956 37.2116 30.1681 36.6027 30.1681 36.6027M20.5636 31.0576C21.0291 19.1606 28.1236 16.8529 32.4458 19.3482C36.7679 21.8436 37.0992 24.5961 36.2676 26.0369C35.4359 27.4776 33.4408 27.6063 34.0495 29.8787M20.5636 31.0576L18.3454 34.8987C17.7329 35.9596 18.0964 37.316 19.1573 37.9285L24.92 41.2556C25.9809 41.8681 27.3374 41.5046 27.95 40.4437L30.1681 36.6027M30.1681 36.6027C32.5147 34.756 36.3022 33.7405 37.4112 31.8196C38.5203 29.8987 37.9114 27.6262 35.7131 26.9973" stroke="white" stroke-width="1.5" stroke-linecap="round" stroke-linejoin="round"/>
</svg>
