<svg width="56" height="60" viewBox="0 0 56 60" fill="none" xmlns="http://www.w3.org/2000/svg">
<path d="M56 24.6729C56 42.0591 51.4391 60 35.4495 60C19.46 60 0 50.0473 0 32.6611C0 15.2749 18.0286 0 34.0181 0C50.0076 0 56 7.28666 56 24.6729Z" fill="#0C2965"/>
<path d="M28.7707 24.6529C26.5486 19.618 21.3725 19.2198 18.9578 21.3648C16.9927 23.0731 16.0551 27.3501 17.8404 31.2419C20.9358 37.9336 28.7707 41.5171 28.7707 41.5171C28.7707 41.5171 36.6055 37.9978 39.7009 31.3061C41.4863 27.4529 40.5486 23.1887 38.5835 21.429C36.1688 19.2198 30.9927 19.618 28.7707 24.6529Z" stroke="white" stroke-width="1.5" stroke-linecap="round" stroke-linejoin="round"/>
<path d="M17.6479 30.7795H23.6333L27.4865 34.6327L31.3397 26.9263L33.9085 30.7795H39.8938" stroke="white" stroke-width="1.5" stroke-linecap="round" stroke-linejoin="round"/>
</svg>
