<svg width="56" height="60" viewBox="0 0 56 60" fill="none" xmlns="http://www.w3.org/2000/svg">
<path d="M56 30.3158C56 49.8982 45.1476 60 28.1559 60C11.1642 60 0 49.2666 0 29.6842C0 10.1018 9.52629 0 26.518 0C43.5097 0 56 10.7334 56 30.3158Z" fill="#0C2965"/>
<path d="M32.9927 21.8726C32.9927 22.3698 32.7951 22.8468 32.4435 23.1984C32.0919 23.55 31.615 23.7476 31.1177 23.7476C30.6204 23.7476 30.1435 23.55 29.7919 23.1984C29.4402 22.8468 29.2427 22.3698 29.2427 21.8726C29.2427 21.3753 29.4402 20.8984 29.7919 20.5467C30.1435 20.1951 30.6204 19.9976 31.1177 19.9976C31.615 19.9976 32.0919 20.1951 32.4435 20.5467C32.7951 20.8984 32.9927 21.3753 32.9927 21.8726Z" stroke="white" stroke-width="1.5" stroke-linecap="round" stroke-linejoin="round"/>
<path d="M39.25 18.75C38.625 21.25 37.375 25 31.75 26.25C27.3575 27.2263 23.625 27.5 21.75 31.25" stroke="white" stroke-width="1.5" stroke-linecap="round" stroke-linejoin="round"/>
<path d="M29.875 26.875C29.875 26.875 29.25 40.625 19.25 41.25M34.25 25.625C34.25 25.625 34.875 36.25 16.75 36.25" stroke="white" stroke-width="1.5" stroke-linecap="round" stroke-linejoin="round"/>
</svg>
