<svg width="56" height="60" viewBox="0 0 56 60" fill="none" xmlns="http://www.w3.org/2000/svg">
<path d="M56 23.0854C56 42.1613 43.4925 60 24.5484 60C5.60428 60 0 44.6223 0 25.5464C0 6.47054 2.96894 0 21.913 0C40.8571 0 56 4.00957 56 23.0854Z" fill="#0C2965"/>
<path d="M41.9284 43.8857H40.857C39.7204 43.8857 38.6303 43.4342 37.8265 42.6305C37.0228 41.8268 36.5713 40.7367 36.5713 39.6C36.5713 40.7367 36.1198 41.8268 35.316 42.6305C34.5123 43.4342 33.4222 43.8857 32.2856 43.8857C31.1489 43.8857 30.0588 43.4342 29.2551 42.6305C28.4514 41.8268 27.9999 40.7367 27.9999 39.6C27.9999 40.7367 27.5483 41.8268 26.7446 42.6305C25.9409 43.4342 24.8508 43.8857 23.7141 43.8857C22.5775 43.8857 21.4874 43.4342 20.6837 42.6305C19.88 41.8268 19.4284 40.7367 19.4284 39.6C19.4284 40.7367 18.9769 41.8268 18.1732 42.6305C17.3694 43.4342 16.2794 43.8857 15.1427 43.8857H14.0713M34.4284 35.3143C33.3248 33.9725 31.9377 32.8919 30.3668 32.1499C28.7958 31.408 27.0801 31.0232 25.3427 31.0232C23.6054 31.0232 21.8896 31.408 20.3187 32.1499C18.7477 32.8919 17.3606 33.9725 16.257 35.3143" stroke="white" stroke-width="1.5" stroke-linecap="round" stroke-linejoin="round"/>
<path d="M26.9285 31.1357C27.0571 26.2928 28.5356 21.8785 31.7499 20.2928M25.3428 16.2214C26.7318 15.9478 28.1729 16.2176 29.369 16.9751C30.565 17.7326 31.4249 18.9201 31.7713 20.2928" stroke="white" stroke-width="1.5" stroke-linecap="round" stroke-linejoin="round"/>
<path d="M39.5929 21.0856C38.6066 20.0207 37.2655 19.3525 35.8213 19.2065C34.3772 19.0605 32.9294 19.4468 31.75 20.2928" stroke="white" stroke-width="1.5" stroke-linecap="round" stroke-linejoin="round"/>
<path d="M23.8857 22.5855C24.7254 21.3485 25.97 20.4428 27.4054 20.0243C28.8407 19.6058 30.3771 19.7007 31.75 20.2927C33.1272 20.6295 34.3195 21.4883 35.0752 22.6879C35.8309 23.8874 36.0908 25.3337 35.8 26.7213" stroke="white" stroke-width="1.5" stroke-linecap="round" stroke-linejoin="round"/>
</svg>
