<svg width="56" height="60" viewBox="0 0 56 60" fill="none" xmlns="http://www.w3.org/2000/svg">
<path d="M56 31.5789C56 47.0817 45.4983 60 29.9371 60C14.3759 60 0 44.6255 0 29.1228C0 13.6201 17.5457 0 33.1069 0C48.6681 0 56 16.0762 56 31.5789Z" fill="#0C2965"/>
<path fill-rule="evenodd" clip-rule="evenodd" d="M37.4667 14.5902C33.9982 12.48 26.9098 17.7987 21.6343 26.4699C16.3588 35.1411 14.8938 43.8811 18.3623 45.9913C21.8308 48.1015 28.9192 42.7828 34.1947 34.1116C39.4702 25.4405 40.9352 16.7004 37.4667 14.5902Z" stroke="#F1F3F6" stroke-width="1.5" stroke-linecap="round" stroke-linejoin="round"/>
<path fill-rule="evenodd" clip-rule="evenodd" d="M12.214 20.7386C10.1037 24.207 15.4225 31.2954 24.0936 36.571C32.7648 41.8465 41.5048 43.3114 43.615 39.843C45.7253 36.3745 40.4065 29.2861 31.7354 24.0105C23.0642 18.735 14.3242 17.2701 12.214 20.7386Z" stroke="#F1F3F6" stroke-width="1.5" stroke-linecap="round" stroke-linejoin="round"/>
<path d="M27.9281 30.2875L27.9146 30.2908" stroke="#F1F3F6" stroke-width="2" stroke-linecap="round" stroke-linejoin="round"/>
</svg>
