<svg width="56" height="60" viewBox="0 0 56 60" fill="none" xmlns="http://www.w3.org/2000/svg">
<path d="M56 34.8571C56 52.5746 41.8078 60 25.9636 60C10.1195 60 0 38.2888 0 20.5714C0 2.85402 17.8647 0 33.7089 0C49.553 0 56 17.1397 56 34.8571Z" fill="#0C2965"/>
<path d="M39.5919 22.1227C42.2369 23.2529 45.2116 23.3404 47.9185 22.3675M24.6532 45.6329C25.6252 42.9175 25.5377 39.9355 24.4083 37.2818C23.5242 35.1689 23.285 32.8416 23.7208 30.5929C24.1566 28.3443 25.2479 26.2749 26.8573 24.6451C28.5071 23.0124 30.6033 21.9046 32.8817 21.4614" stroke="white" stroke-width="1.5" stroke-linecap="round" stroke-linejoin="round"/>
<path d="M31.0203 37.9676C33.3103 37.5221 35.416 36.4053 37.0693 34.7594M37.0693 34.7594C38.6815 33.1314 39.7747 31.0619 40.2106 28.8125C40.6465 26.5632 40.4056 24.2351 39.5183 22.1227C38.4119 19.4684 38.3506 16.4937 39.3468 13.7961M37.0693 34.7594L26.955 24.6451M16.0815 37.0615C18.7895 36.084 21.769 36.1804 24.4081 37.3308" stroke="white" stroke-width="1.5" stroke-linecap="round" stroke-linejoin="round"/>
</svg>
